<svg xmlns="http://www.w3.org/2000/svg" width="128" height="128" viewBox="0 0 128 128">
  <title>ARCHITECT</title>
  <g>
    <g>
      <path d="M119.86,110.73v15.52H8.14V110.73A22.578,22.578,0,0,1,24.75,88.97,54.609,54.609,0,0,1,35.59,87.5c.82-.05,1.64-.11,2.46-.17l14.88,16.79,10.94-10,10.95,10L89.67,87.36c1.25.1,2.49.19,3.76.3a55.863,55.863,0,0,1,9.82,1.31A22.578,22.578,0,0,1,119.86,110.73Z" fill="#f3f5f9"/>
      <g>
        <path d="M54.117,6.689,40.572,14.438a7.405,7.405,0,0,0-3.728,6.429v9.126H59.556V6.689Z" fill="#ffdf40"/>
        <path d="M73.883,6.689H68.444v23.3H91.156V20.867a7.405,7.405,0,0,0-3.728-6.429Z" fill="#ffdf40"/>
      </g>
      <g>
        <path d="M54.117,6.689,40.572,14.438a7.405,7.405,0,0,0-3.728,6.429v9.126H59.556V6.689Z" fill="#ffdf40"/>
        <path d="M73.883,6.689H68.444v23.3H91.156V20.867a7.405,7.405,0,0,0-3.728-6.429Z" fill="#ffdf40"/>
      </g>
      <path d="M38.816,37.426v2.586a22.369,22.369,0,0,0,.5,4.7l1.52,6.935c.792,3.635,1.325,7.514,2.726,10.973a22.072,22.072,0,0,0,40.87,0c1.4-3.459,1.934-7.338,2.726-10.973l1.519-6.935a22.316,22.316,0,0,0,.5-4.705V37.426Z" fill="#ffc080"/>
      <path d="M89.866,38.622a6.13,6.13,0,0,0-.682.052V40.01a22.316,22.316,0,0,1-.5,4.705l-1.54,7.033a6.847,6.847,0,1,0,2.726-13.126Z" fill="#e69f6e"/>
      <path d="M39.322,44.715a22.053,22.053,0,0,1-.508-4.708V38.693a6.851,6.851,0,1,0,2.022,12.96Z" fill="#e69f6e"/>
      <g>
        <path d="M64.251,52.916h1.97a1.75,1.75,0,0,0,0-3.5l-1.912.066.714-4.717a1.75,1.75,0,1,0-3.461-.525l-.714,4.718a3.443,3.443,0,0,0,3.4,3.958Z" fill="#3d4566"/>
        <path d="M75.071,35.676a4.183,4.183,0,1,0,4.183,4.182A4.187,4.187,0,0,0,75.071,35.676Z" fill="#3d4566"/>
        <path d="M69.242,57.493a7.041,7.041,0,0,1-5.368,2.087,7.044,7.044,0,0,1-5.369-2.088,1.749,1.749,0,1,0-2.7,2.224,10.427,10.427,0,0,0,8.07,3.364,10.43,10.43,0,0,0,8.069-3.362,1.75,1.75,0,1,0-2.7-2.225Z" fill="#3d4566"/>
        <path d="M57.111,39.858a4.183,4.183,0,1,0-4.182,4.183A4.187,4.187,0,0,0,57.111,39.858Z" fill="#3d4566"/>
      </g>
      <rect x="28.141" y="29.993" width="71.719" height="7.433" rx="2" fill="#4d5e80"/>
      <path d="M61.531,1.747h4.937a1.975,1.975,0,0,1,1.975,1.975V29.993a0,0,0,0,1,0,0H59.556a0,0,0,0,1,0,0V3.722A1.975,1.975,0,0,1,61.531,1.747Z" fill="#3d4566"/>
      <polygon points="77.269 8.626 77.269 22.583 83.812 22.583 83.812 12.369 77.269 8.626" fill="#ff7f40"/>
      <polygon points="50.73 8.626 50.73 22.583 44.188 22.583 44.188 12.369 50.73 8.626" fill="#ff7f40"/>
      <path d="M79.592,84.146a3.987,3.987,0,0,1-.631-1.127h0a6.771,6.771,0,0,1-.775-2.348l-1.1-8.631a22,22,0,0,1-26.166,0l-1.1,8.631a9.138,9.138,0,0,1-1.651,3.479l15.712,9.975Z" fill="#e69f6e"/>
      <path d="M63.874,94.125,48.162,84.15a7.188,7.188,0,0,1-3.569,2.468A8.84,8.84,0,0,1,41.916,87c-1.287.128-2.577.234-3.869.331l14.882,16.8Z" fill="#e1e6f0"/>
      <path d="M74.818,104.125,89.671,87.363c-1.269-.1-2.539-.212-3.829-.378a17.212,17.212,0,0,1-2.3-.487,7.651,7.651,0,0,1-3.953-2.352L63.874,94.125Z" fill="#e1e6f0"/>
      <polygon points="66.497 108.5 72.042 101.588 63.874 94.125 55.705 101.588 61.25 108.5 66.497 108.5" fill="#3d4566"/>
      <polygon points="70.593 126.247 66.497 108.5 61.25 108.5 57.154 126.247 70.593 126.247" fill="#4d5e80"/>
      <path d="M105.55,108.5v17.75h-3.5V108.5a1.75,1.75,0,0,1,3.5,0Z" fill="#e1e6f0"/>
      <path d="M25.7,108.5v17.75H22.2V108.5a1.75,1.75,0,0,1,3.5,0Z" fill="#e1e6f0"/>
    </g>
    <g>
      <path d="M64.251,52.918h1.97a1.75,1.75,0,0,0,0-3.5l-1.912.067.714-4.717a1.75,1.75,0,1,0-3.461-.525l-.714,4.717a3.442,3.442,0,0,0,3.4,3.958Z"/>
      <path d="M63.874,63.083a10.43,10.43,0,0,0,8.069-3.362,1.75,1.75,0,1,0-2.7-2.225,7.041,7.041,0,0,1-5.368,2.087A7.044,7.044,0,0,1,58.505,57.5a1.749,1.749,0,1,0-2.7,2.224A10.427,10.427,0,0,0,63.874,63.083Z"/>
      <path d="M82.1,93.277l-.973,1.1A1.75,1.75,0,0,0,83.741,96.7l.973-1.1A1.75,1.75,0,0,0,82.1,93.277Z"/>
      <path d="M103.715,87.288a46.159,46.159,0,0,0-8.551-1.236c-.529-.043-1.059-.086-1.581-.132-.883-.079-1.756-.145-2.628-.212l-1.146-.087c-1.174-.093-2.441-.2-3.715-.365a15.238,15.238,0,0,1-2.062-.436,5.919,5.919,0,0,1-3.056-1.742h0a2.3,2.3,0,0,1-.362-.635,1.751,1.751,0,0,0-.11-.251,5,5,0,0,1-.579-1.739l-.973-7.606a23.767,23.767,0,0,0,7.107-9.563,46.914,46.914,0,0,0,2.271-8.595c.048-.245.1-.483.148-.726a8.309,8.309,0,0,0,1.39.12,8.59,8.59,0,0,0,5.84-14.9h2.153a3.754,3.754,0,0,0,3.75-3.75V32a3.754,3.754,0,0,0-3.75-3.75H92.906V20.87A9.178,9.178,0,0,0,88.3,12.922L81.989,9.313l-3.85-2.2h0L74.752,5.172a1.757,1.757,0,0,0-.869-.231h-3.69V3.725A3.729,3.729,0,0,0,66.469,0H61.531a3.728,3.728,0,0,0-3.724,3.725V4.941h-3.69a1.755,1.755,0,0,0-.869.231L49.862,7.109h0l-3.85,2.2L39.7,12.922a9.178,9.178,0,0,0-4.609,7.948v7.376H30.141A3.754,3.754,0,0,0,26.391,32v3.433a3.754,3.754,0,0,0,3.75,3.75h1.9a8.572,8.572,0,0,0-2.764,6.3,1.75,1.75,0,0,0,3.5,0,5.1,5.1,0,0,1,4.3-5.023,24.264,24.264,0,0,0,.533,4.637l1.181,5.39a5.071,5.071,0,0,1-3.2-.442,1.75,1.75,0,1,0-1.573,3.127,8.635,8.635,0,0,0,3.862.914,8.429,8.429,0,0,0,1.633-.163c.051.258.106.51.157.769a46.962,46.962,0,0,0,2.272,8.6,23.759,23.759,0,0,0,7.106,9.559l-.959,7.506a7.4,7.4,0,0,1-1.3,2.719h0a5.45,5.45,0,0,1-2.712,1.877,7.028,7.028,0,0,1-2.149.3c-.056,0-.121,0-.182.009-1.273.126-2.549.231-3.826.326-.811.061-1.621.121-2.442.17a56.809,56.809,0,0,0-11.19,1.531A24.363,24.363,0,0,0,6.391,110.733V126.25A1.75,1.75,0,0,0,8.141,128H119.859a1.75,1.75,0,0,0,1.75-1.75V110.733A24.363,24.363,0,0,0,103.715,87.288ZM65.657,106.753H62.09L58.1,101.776,63.874,96.5l5.776,5.277ZM89.866,50.582a4.833,4.833,0,0,1-.666-.06l1.192-5.436a24.27,24.27,0,0,0,.53-4.6,5.1,5.1,0,0,1-1.056,10.094Zm-7.8-37.195v7.448H79.019V11.646ZM73.418,8.441l2.1,1.2V22.585a1.75,1.75,0,0,0,1.75,1.75h6.542a1.749,1.749,0,0,0,1.75-1.75V15.39l1,.57a5.67,5.67,0,0,1,2.847,4.91v7.376H70.193V8.441ZM61.307,3.725a.224.224,0,0,1,.224-.225h4.938a.224.224,0,0,1,.224.225V28.246H61.307V3.725ZM48.98,11.646v9.189H45.938V13.387ZM38.594,20.87a5.67,5.67,0,0,1,2.847-4.91l1-.57v7.2a1.75,1.75,0,0,0,1.75,1.75H50.73a1.749,1.749,0,0,0,1.75-1.75V9.644l2.1-1.2h3.225V28.246H38.594Zm-8.7,14.559V32a.25.25,0,0,1,.25-.25H97.859a.25.25,0,0,1,.25.25v3.433a.251.251,0,0,1-.25.25H30.141A.251.251,0,0,1,29.891,35.429Zm15.3,26.541a44.493,44.493,0,0,1-2.082-7.96c-.18-.918-.361-1.831-.557-2.731L41.03,44.35a20.766,20.766,0,0,1-.465-4.335v-.836h8.25a4.183,4.183,0,1,0,8.227,0H70.958a4.183,4.183,0,1,0,8.227,0h8.25v.834a20.726,20.726,0,0,1-.463,4.331l-1.521,6.937c-.195.9-.376,1.811-.557,2.729a44.276,44.276,0,0,1-2.081,7.956,20.239,20.239,0,0,1-6.556,8.539,1.7,1.7,0,0,0-.377.274,20.353,20.353,0,0,1-23.759,0,1.735,1.735,0,0,0-.38-.276A20.248,20.248,0,0,1,45.187,61.97ZM64,78.106a23.823,23.823,0,0,0,11.7-3.055l.748,5.845a8.4,8.4,0,0,0,.816,2.657l-13.393,8.5-13.3-8.442a11.42,11.42,0,0,0,.939-2.529c.014-.062.026-.125.035-.188l.747-5.844A23.833,23.833,0,0,0,64,78.106ZM42,88.752a10.6,10.6,0,0,0,3.109-.46,8.84,8.84,0,0,0,3.335-1.886L61,94.379l-6.48,5.92-.006.007-1.458,1.332L41.671,88.784ZM9.891,110.733A20.854,20.854,0,0,1,25.209,90.664,52.286,52.286,0,0,1,35.7,89.25c.539-.033,1.077-.07,1.615-.108l14.308,16.147a1.766,1.766,0,0,0,2.49.131l1.4-1.278,3.846,4.794L55.762,124.5H25.7v-16a1.75,1.75,0,0,0-3.5,0v16H9.891ZM59.354,124.5l3.289-14.247H65.1L68.393,124.5Zm58.755,0H105.547v-16a1.75,1.75,0,0,0-3.5,0v16H71.985l-3.592-15.564,3.846-4.794,1.4,1.278a1.77,1.77,0,0,0,2.49-.131l2.5-2.816A1.75,1.75,0,1,0,76,100.152l-1.317,1.486-.246-.226L73.225,100.3l0,0-6.479-5.92,12.609-8.006a10.656,10.656,0,0,0,3.705,1.809,19.034,19.034,0,0,0,2.562.542c.393.051.784.095,1.171.136a1.743,1.743,0,0,0,3.042.961l.571-.644.286.022c.856.065,1.713.13,2.583.208.536.047,1.073.09,1.61.134a42.85,42.85,0,0,1,7.908,1.123,20.855,20.855,0,0,1,15.318,20.069Z"/>
    </g>
  </g>
</svg>
